<mxfile host="app.diagrams.net" modified="2023-04-14T17:41:13.450Z" agent="Mozilla/5.0 (Windows NT 10.0; Win64; x64) AppleWebKit/537.36 (KHTML, like Gecko) Chrome/112.0.0.0 Safari/537.36" etag="7pLJYZrS3R2IrCNZy3T_" version="21.1.5" type="device">
  <diagram name="Page-1" id="dIVlRM0FUi2KP0AZjJBj">
    <mxGraphModel dx="1960" dy="1963" grid="1" gridSize="10" guides="1" tooltips="1" connect="1" arrows="1" fold="1" page="1" pageScale="1" pageWidth="850" pageHeight="1100" math="0" shadow="0">
      <root>
        <mxCell id="0" />
        <mxCell id="1" parent="0" />
        <mxCell id="d3Z-Pa4hWS6uCgzsi63L-1" value="Domain Model" style="text;html=1;align=center;verticalAlign=middle;resizable=0;points=[];autosize=1;strokeColor=none;fillColor=none;fontSize=25;" vertex="1" parent="1">
          <mxGeometry x="330" y="-947" width="180" height="40" as="geometry" />
        </mxCell>
        <mxCell id="d3Z-Pa4hWS6uCgzsi63L-2" value="Democracia2.0" style="rounded=0;whiteSpace=wrap;html=1;" vertex="1" parent="1">
          <mxGeometry x="770" y="-927" width="120" height="60" as="geometry" />
        </mxCell>
        <mxCell id="d3Z-Pa4hWS6uCgzsi63L-3" value="PollCatalog" style="rounded=0;whiteSpace=wrap;html=1;" vertex="1" parent="1">
          <mxGeometry x="360" y="-807" width="120" height="60" as="geometry" />
        </mxCell>
        <mxCell id="d3Z-Pa4hWS6uCgzsi63L-4" value="" style="endArrow=none;html=1;rounded=0;exitX=0;exitY=0.5;exitDx=0;exitDy=0;endFill=0;" edge="1" parent="1" source="d3Z-Pa4hWS6uCgzsi63L-2" target="d3Z-Pa4hWS6uCgzsi63L-3">
          <mxGeometry width="50" height="50" relative="1" as="geometry">
            <mxPoint x="620" y="-707" as="sourcePoint" />
            <mxPoint x="670" y="-757" as="targetPoint" />
            <Array as="points">
              <mxPoint x="420" y="-897" />
            </Array>
          </mxGeometry>
        </mxCell>
        <mxCell id="d3Z-Pa4hWS6uCgzsi63L-5" value="1" style="text;html=1;align=center;verticalAlign=middle;resizable=0;points=[];autosize=1;strokeColor=none;fillColor=none;" vertex="1" parent="1">
          <mxGeometry x="420" y="-837" width="30" height="30" as="geometry" />
        </mxCell>
        <mxCell id="d3Z-Pa4hWS6uCgzsi63L-6" value="1" style="text;html=1;align=center;verticalAlign=middle;resizable=0;points=[];autosize=1;strokeColor=none;fillColor=none;" vertex="1" parent="1">
          <mxGeometry x="740" y="-927" width="30" height="30" as="geometry" />
        </mxCell>
        <mxCell id="d3Z-Pa4hWS6uCgzsi63L-7" value="BillCatalog" style="rounded=0;whiteSpace=wrap;html=1;" vertex="1" parent="1">
          <mxGeometry x="600" y="-807" width="120" height="60" as="geometry" />
        </mxCell>
        <mxCell id="d3Z-Pa4hWS6uCgzsi63L-8" value="" style="endArrow=none;html=1;rounded=0;exitX=0.25;exitY=1;exitDx=0;exitDy=0;entryX=0.5;entryY=0;entryDx=0;entryDy=0;endFill=0;" edge="1" parent="1" source="d3Z-Pa4hWS6uCgzsi63L-2" target="d3Z-Pa4hWS6uCgzsi63L-7">
          <mxGeometry width="50" height="50" relative="1" as="geometry">
            <mxPoint x="830" y="-737" as="sourcePoint" />
            <mxPoint x="880" y="-787" as="targetPoint" />
            <Array as="points">
              <mxPoint x="800" y="-837" />
              <mxPoint x="760" y="-837" />
              <mxPoint x="700" y="-837" />
              <mxPoint x="660" y="-837" />
            </Array>
          </mxGeometry>
        </mxCell>
        <mxCell id="d3Z-Pa4hWS6uCgzsi63L-9" value="1" style="text;html=1;align=center;verticalAlign=middle;resizable=0;points=[];autosize=1;strokeColor=none;fillColor=none;" vertex="1" parent="1">
          <mxGeometry x="770" y="-867" width="30" height="30" as="geometry" />
        </mxCell>
        <mxCell id="d3Z-Pa4hWS6uCgzsi63L-10" value="1" style="text;html=1;align=center;verticalAlign=middle;resizable=0;points=[];autosize=1;strokeColor=none;fillColor=none;" vertex="1" parent="1">
          <mxGeometry x="630" y="-837" width="30" height="30" as="geometry" />
        </mxCell>
        <mxCell id="d3Z-Pa4hWS6uCgzsi63L-11" value="CitizenCatalog" style="rounded=0;whiteSpace=wrap;html=1;" vertex="1" parent="1">
          <mxGeometry x="1200" y="-807" width="120" height="60" as="geometry" />
        </mxCell>
        <mxCell id="d3Z-Pa4hWS6uCgzsi63L-12" value="" style="endArrow=none;html=1;rounded=0;exitX=0.75;exitY=1;exitDx=0;exitDy=0;endFill=0;entryX=0.5;entryY=0;entryDx=0;entryDy=0;" edge="1" parent="1" source="d3Z-Pa4hWS6uCgzsi63L-2" target="d3Z-Pa4hWS6uCgzsi63L-15">
          <mxGeometry width="50" height="50" relative="1" as="geometry">
            <mxPoint x="890" y="-897" as="sourcePoint" />
            <mxPoint x="900" y="-777" as="targetPoint" />
            <Array as="points">
              <mxPoint x="860" y="-837" />
              <mxPoint x="950" y="-837" />
              <mxPoint x="1000" y="-837" />
              <mxPoint x="1020" y="-837" />
            </Array>
          </mxGeometry>
        </mxCell>
        <mxCell id="d3Z-Pa4hWS6uCgzsi63L-13" value="1" style="text;html=1;align=center;verticalAlign=middle;resizable=0;points=[];autosize=1;strokeColor=none;fillColor=none;" vertex="1" parent="1">
          <mxGeometry x="860" y="-867" width="30" height="30" as="geometry" />
        </mxCell>
        <mxCell id="d3Z-Pa4hWS6uCgzsi63L-14" value="1" style="text;html=1;align=center;verticalAlign=middle;resizable=0;points=[];autosize=1;strokeColor=none;fillColor=none;" vertex="1" parent="1">
          <mxGeometry x="1020" y="-837" width="30" height="30" as="geometry" />
        </mxCell>
        <mxCell id="d3Z-Pa4hWS6uCgzsi63L-15" value="ThemeCatalog" style="rounded=0;whiteSpace=wrap;html=1;" vertex="1" parent="1">
          <mxGeometry x="960" y="-807" width="120" height="60" as="geometry" />
        </mxCell>
        <mxCell id="d3Z-Pa4hWS6uCgzsi63L-16" value="" style="endArrow=none;html=1;rounded=0;exitX=1;exitY=0.5;exitDx=0;exitDy=0;endFill=0;entryX=0.5;entryY=0;entryDx=0;entryDy=0;" edge="1" parent="1" source="d3Z-Pa4hWS6uCgzsi63L-2" target="d3Z-Pa4hWS6uCgzsi63L-11">
          <mxGeometry width="50" height="50" relative="1" as="geometry">
            <mxPoint x="780" y="-887" as="sourcePoint" />
            <mxPoint x="1320" y="-867" as="targetPoint" />
            <Array as="points">
              <mxPoint x="1260" y="-897" />
            </Array>
          </mxGeometry>
        </mxCell>
        <mxCell id="d3Z-Pa4hWS6uCgzsi63L-17" value="1" style="text;html=1;align=center;verticalAlign=middle;resizable=0;points=[];autosize=1;strokeColor=none;fillColor=none;" vertex="1" parent="1">
          <mxGeometry x="1260" y="-837" width="30" height="30" as="geometry" />
        </mxCell>
        <mxCell id="d3Z-Pa4hWS6uCgzsi63L-18" value="1" style="text;html=1;align=center;verticalAlign=middle;resizable=0;points=[];autosize=1;strokeColor=none;fillColor=none;" vertex="1" parent="1">
          <mxGeometry x="890" y="-927" width="30" height="30" as="geometry" />
        </mxCell>
        <mxCell id="d3Z-Pa4hWS6uCgzsi63L-19" value="" style="endArrow=none;html=1;rounded=0;exitX=0.5;exitY=0;exitDx=0;exitDy=0;entryX=0.5;entryY=1;entryDx=0;entryDy=0;" edge="1" parent="1" target="d3Z-Pa4hWS6uCgzsi63L-3">
          <mxGeometry width="50" height="50" relative="1" as="geometry">
            <mxPoint x="420" y="-647" as="sourcePoint" />
            <mxPoint x="850" y="-657" as="targetPoint" />
          </mxGeometry>
        </mxCell>
        <mxCell id="d3Z-Pa4hWS6uCgzsi63L-20" value="" style="endArrow=none;html=1;rounded=0;entryX=0.5;entryY=1;entryDx=0;entryDy=0;" edge="1" parent="1" target="d3Z-Pa4hWS6uCgzsi63L-7">
          <mxGeometry width="50" height="50" relative="1" as="geometry">
            <mxPoint x="660" y="-647" as="sourcePoint" />
            <mxPoint x="670" y="-737" as="targetPoint" />
          </mxGeometry>
        </mxCell>
        <mxCell id="d3Z-Pa4hWS6uCgzsi63L-21" value="" style="endArrow=none;html=1;rounded=0;exitX=0.5;exitY=0;exitDx=0;exitDy=0;entryX=0.5;entryY=1;entryDx=0;entryDy=0;" edge="1" parent="1" target="d3Z-Pa4hWS6uCgzsi63L-15">
          <mxGeometry width="50" height="50" relative="1" as="geometry">
            <mxPoint x="1020" y="-647" as="sourcePoint" />
            <mxPoint x="970" y="-697" as="targetPoint" />
            <Array as="points">
              <mxPoint x="1020" y="-687" />
            </Array>
          </mxGeometry>
        </mxCell>
        <mxCell id="d3Z-Pa4hWS6uCgzsi63L-22" value="" style="endArrow=none;html=1;rounded=0;entryX=0.5;entryY=1;entryDx=0;entryDy=0;exitX=0.5;exitY=0;exitDx=0;exitDy=0;" edge="1" parent="1" source="d3Z-Pa4hWS6uCgzsi63L-40" target="d3Z-Pa4hWS6uCgzsi63L-11">
          <mxGeometry width="50" height="50" relative="1" as="geometry">
            <mxPoint x="1200" y="-687" as="sourcePoint" />
            <mxPoint x="1330" y="-807" as="targetPoint" />
          </mxGeometry>
        </mxCell>
        <mxCell id="d3Z-Pa4hWS6uCgzsi63L-23" value="1" style="text;html=1;align=center;verticalAlign=middle;resizable=0;points=[];autosize=1;strokeColor=none;fillColor=none;" vertex="1" parent="1">
          <mxGeometry x="420" y="-747" width="30" height="30" as="geometry" />
        </mxCell>
        <mxCell id="d3Z-Pa4hWS6uCgzsi63L-24" value="*" style="text;html=1;align=center;verticalAlign=middle;resizable=0;points=[];autosize=1;strokeColor=none;fillColor=none;" vertex="1" parent="1">
          <mxGeometry x="420" y="-677" width="30" height="30" as="geometry" />
        </mxCell>
        <mxCell id="d3Z-Pa4hWS6uCgzsi63L-25" value="1" style="text;html=1;align=center;verticalAlign=middle;resizable=0;points=[];autosize=1;strokeColor=none;fillColor=none;" vertex="1" parent="1">
          <mxGeometry x="630" y="-747" width="30" height="30" as="geometry" />
        </mxCell>
        <mxCell id="d3Z-Pa4hWS6uCgzsi63L-26" value="*" style="text;html=1;align=center;verticalAlign=middle;resizable=0;points=[];autosize=1;strokeColor=none;fillColor=none;" vertex="1" parent="1">
          <mxGeometry x="630" y="-677" width="30" height="30" as="geometry" />
        </mxCell>
        <mxCell id="d3Z-Pa4hWS6uCgzsi63L-27" value="1" style="text;html=1;align=center;verticalAlign=middle;resizable=0;points=[];autosize=1;strokeColor=none;fillColor=none;" vertex="1" parent="1">
          <mxGeometry x="1260" y="-747" width="30" height="30" as="geometry" />
        </mxCell>
        <mxCell id="d3Z-Pa4hWS6uCgzsi63L-28" value="*" style="text;html=1;align=center;verticalAlign=middle;resizable=0;points=[];autosize=1;strokeColor=none;fillColor=none;" vertex="1" parent="1">
          <mxGeometry x="1260" y="-677" width="30" height="30" as="geometry" />
        </mxCell>
        <mxCell id="d3Z-Pa4hWS6uCgzsi63L-29" value="1" style="text;html=1;align=center;verticalAlign=middle;resizable=0;points=[];autosize=1;strokeColor=none;fillColor=none;" vertex="1" parent="1">
          <mxGeometry x="1020" y="-747" width="30" height="30" as="geometry" />
        </mxCell>
        <mxCell id="d3Z-Pa4hWS6uCgzsi63L-30" value="*" style="text;html=1;align=center;verticalAlign=middle;resizable=0;points=[];autosize=1;strokeColor=none;fillColor=none;" vertex="1" parent="1">
          <mxGeometry x="1020" y="-677" width="30" height="30" as="geometry" />
        </mxCell>
        <mxCell id="d3Z-Pa4hWS6uCgzsi63L-31" value="" style="triangle;whiteSpace=wrap;html=1;direction=north;" vertex="1" parent="1">
          <mxGeometry x="1240" y="-437" width="40" height="30" as="geometry" />
        </mxCell>
        <mxCell id="d3Z-Pa4hWS6uCgzsi63L-32" value="" style="endArrow=none;html=1;rounded=0;exitX=0.5;exitY=0;exitDx=0;exitDy=0;entryX=0;entryY=0.5;entryDx=0;entryDy=0;" edge="1" parent="1" source="d3Z-Pa4hWS6uCgzsi63L-50" target="d3Z-Pa4hWS6uCgzsi63L-31">
          <mxGeometry width="50" height="50" relative="1" as="geometry">
            <mxPoint x="1020" y="-357" as="sourcePoint" />
            <mxPoint x="1020" y="-467" as="targetPoint" />
          </mxGeometry>
        </mxCell>
        <mxCell id="d3Z-Pa4hWS6uCgzsi63L-33" value="" style="endArrow=none;html=1;rounded=0;exitX=1;exitY=0;exitDx=0;exitDy=0;exitPerimeter=0;" edge="1" parent="1" source="d3Z-Pa4hWS6uCgzsi63L-52">
          <mxGeometry width="50" height="50" relative="1" as="geometry">
            <mxPoint x="1230" y="-237" as="sourcePoint" />
            <mxPoint x="700" y="-437" as="targetPoint" />
            <Array as="points">
              <mxPoint x="1220" y="-237" />
              <mxPoint x="700" y="-237" />
            </Array>
          </mxGeometry>
        </mxCell>
        <mxCell id="d3Z-Pa4hWS6uCgzsi63L-34" value="Poll" style="swimlane;fontStyle=0;childLayout=stackLayout;horizontal=1;startSize=30;horizontalStack=0;resizeParent=1;resizeParentMax=0;resizeLast=0;collapsible=1;marginBottom=0;whiteSpace=wrap;html=1;" vertex="1" parent="1">
          <mxGeometry x="350" y="-647" width="140" height="180" as="geometry" />
        </mxCell>
        <mxCell id="d3Z-Pa4hWS6uCgzsi63L-35" value="numPositiveVotes" style="text;strokeColor=none;fillColor=none;align=left;verticalAlign=middle;spacingLeft=4;spacingRight=4;overflow=hidden;points=[[0,0.5],[1,0.5]];portConstraint=eastwest;rotatable=0;whiteSpace=wrap;html=1;" vertex="1" parent="d3Z-Pa4hWS6uCgzsi63L-34">
          <mxGeometry y="30" width="140" height="30" as="geometry" />
        </mxCell>
        <mxCell id="d3Z-Pa4hWS6uCgzsi63L-36" value="numNegativeVotes" style="text;strokeColor=none;fillColor=none;align=left;verticalAlign=middle;spacingLeft=4;spacingRight=4;overflow=hidden;points=[[0,0.5],[1,0.5]];portConstraint=eastwest;rotatable=0;whiteSpace=wrap;html=1;" vertex="1" parent="d3Z-Pa4hWS6uCgzsi63L-34">
          <mxGeometry y="60" width="140" height="30" as="geometry" />
        </mxCell>
        <mxCell id="d3Z-Pa4hWS6uCgzsi63L-37" value="closingDate" style="text;strokeColor=none;fillColor=none;align=left;verticalAlign=middle;spacingLeft=4;spacingRight=4;overflow=hidden;points=[[0,0.5],[1,0.5]];portConstraint=eastwest;rotatable=0;whiteSpace=wrap;html=1;" vertex="1" parent="d3Z-Pa4hWS6uCgzsi63L-34">
          <mxGeometry y="90" width="140" height="30" as="geometry" />
        </mxCell>
        <mxCell id="d3Z-Pa4hWS6uCgzsi63L-38" value="status" style="text;strokeColor=none;fillColor=none;align=left;verticalAlign=middle;spacingLeft=4;spacingRight=4;overflow=hidden;points=[[0,0.5],[1,0.5]];portConstraint=eastwest;rotatable=0;whiteSpace=wrap;html=1;" vertex="1" parent="d3Z-Pa4hWS6uCgzsi63L-34">
          <mxGeometry y="120" width="140" height="30" as="geometry" />
        </mxCell>
        <mxCell id="d3Z-Pa4hWS6uCgzsi63L-39" value="voters" style="text;strokeColor=none;fillColor=none;align=left;verticalAlign=middle;spacingLeft=4;spacingRight=4;overflow=hidden;points=[[0,0.5],[1,0.5]];portConstraint=eastwest;rotatable=0;whiteSpace=wrap;html=1;" vertex="1" parent="d3Z-Pa4hWS6uCgzsi63L-34">
          <mxGeometry y="150" width="140" height="30" as="geometry" />
        </mxCell>
        <mxCell id="d3Z-Pa4hWS6uCgzsi63L-40" value="Voter" style="swimlane;fontStyle=0;childLayout=stackLayout;horizontal=1;startSize=30;horizontalStack=0;resizeParent=1;resizeParentMax=0;resizeLast=0;collapsible=1;marginBottom=0;whiteSpace=wrap;html=1;" vertex="1" parent="1">
          <mxGeometry x="1190" y="-647" width="140" height="210" as="geometry" />
        </mxCell>
        <mxCell id="d3Z-Pa4hWS6uCgzsi63L-41" value="nic" style="text;strokeColor=none;fillColor=none;align=left;verticalAlign=middle;spacingLeft=4;spacingRight=4;overflow=hidden;points=[[0,0.5],[1,0.5]];portConstraint=eastwest;rotatable=0;whiteSpace=wrap;html=1;" vertex="1" parent="d3Z-Pa4hWS6uCgzsi63L-40">
          <mxGeometry y="30" width="140" height="30" as="geometry" />
        </mxCell>
        <mxCell id="d3Z-Pa4hWS6uCgzsi63L-42" value="nif" style="text;strokeColor=none;fillColor=none;align=left;verticalAlign=middle;spacingLeft=4;spacingRight=4;overflow=hidden;points=[[0,0.5],[1,0.5]];portConstraint=eastwest;rotatable=0;whiteSpace=wrap;html=1;" vertex="1" parent="d3Z-Pa4hWS6uCgzsi63L-40">
          <mxGeometry y="60" width="140" height="30" as="geometry" />
        </mxCell>
        <mxCell id="d3Z-Pa4hWS6uCgzsi63L-43" value="firstName&lt;span style=&quot;white-space: pre;&quot;&gt; &lt;/span&gt;" style="text;strokeColor=none;fillColor=none;align=left;verticalAlign=middle;spacingLeft=4;spacingRight=4;overflow=hidden;points=[[0,0.5],[1,0.5]];portConstraint=eastwest;rotatable=0;whiteSpace=wrap;html=1;" vertex="1" parent="d3Z-Pa4hWS6uCgzsi63L-40">
          <mxGeometry y="90" width="140" height="30" as="geometry" />
        </mxCell>
        <mxCell id="d3Z-Pa4hWS6uCgzsi63L-44" value="lastName" style="text;strokeColor=none;fillColor=none;align=left;verticalAlign=middle;spacingLeft=4;spacingRight=4;overflow=hidden;points=[[0,0.5],[1,0.5]];portConstraint=eastwest;rotatable=0;whiteSpace=wrap;html=1;" vertex="1" parent="d3Z-Pa4hWS6uCgzsi63L-40">
          <mxGeometry y="120" width="140" height="30" as="geometry" />
        </mxCell>
        <mxCell id="d3Z-Pa4hWS6uCgzsi63L-45" value="birthDay" style="text;strokeColor=none;fillColor=none;align=left;verticalAlign=middle;spacingLeft=4;spacingRight=4;overflow=hidden;points=[[0,0.5],[1,0.5]];portConstraint=eastwest;rotatable=0;whiteSpace=wrap;html=1;" vertex="1" parent="d3Z-Pa4hWS6uCgzsi63L-40">
          <mxGeometry y="150" width="140" height="30" as="geometry" />
        </mxCell>
        <mxCell id="d3Z-Pa4hWS6uCgzsi63L-46" value="docExpirationDate" style="text;strokeColor=none;fillColor=none;align=left;verticalAlign=middle;spacingLeft=4;spacingRight=4;overflow=hidden;points=[[0,0.5],[1,0.5]];portConstraint=eastwest;rotatable=0;whiteSpace=wrap;html=1;" vertex="1" parent="d3Z-Pa4hWS6uCgzsi63L-40">
          <mxGeometry y="180" width="140" height="30" as="geometry" />
        </mxCell>
        <mxCell id="d3Z-Pa4hWS6uCgzsi63L-47" value="Theme" style="swimlane;fontStyle=0;childLayout=stackLayout;horizontal=1;startSize=30;horizontalStack=0;resizeParent=1;resizeParentMax=0;resizeLast=0;collapsible=1;marginBottom=0;whiteSpace=wrap;html=1;" vertex="1" parent="1">
          <mxGeometry x="950" y="-647" width="140" height="90" as="geometry" />
        </mxCell>
        <mxCell id="d3Z-Pa4hWS6uCgzsi63L-48" value="designation" style="text;strokeColor=none;fillColor=none;align=left;verticalAlign=middle;spacingLeft=4;spacingRight=4;overflow=hidden;points=[[0,0.5],[1,0.5]];portConstraint=eastwest;rotatable=0;whiteSpace=wrap;html=1;" vertex="1" parent="d3Z-Pa4hWS6uCgzsi63L-47">
          <mxGeometry y="30" width="140" height="30" as="geometry" />
        </mxCell>
        <mxCell id="d3Z-Pa4hWS6uCgzsi63L-49" value="subthemes" style="text;strokeColor=none;fillColor=none;align=left;verticalAlign=middle;spacingLeft=4;spacingRight=4;overflow=hidden;points=[[0,0.5],[1,0.5]];portConstraint=eastwest;rotatable=0;whiteSpace=wrap;html=1;" vertex="1" parent="d3Z-Pa4hWS6uCgzsi63L-47">
          <mxGeometry y="60" width="140" height="30" as="geometry" />
        </mxCell>
        <mxCell id="d3Z-Pa4hWS6uCgzsi63L-50" value="Delegate" style="swimlane;fontStyle=0;childLayout=stackLayout;horizontal=1;startSize=30;horizontalStack=0;resizeParent=1;resizeParentMax=0;resizeLast=0;collapsible=1;marginBottom=0;whiteSpace=wrap;html=1;" vertex="1" parent="1">
          <mxGeometry x="1190" y="-337" width="140" height="60" as="geometry" />
        </mxCell>
        <mxCell id="d3Z-Pa4hWS6uCgzsi63L-51" value="*" style="text;html=1;align=center;verticalAlign=middle;resizable=0;points=[];autosize=1;strokeColor=none;fillColor=none;" vertex="1" parent="1">
          <mxGeometry x="700" y="-437" width="30" height="30" as="geometry" />
        </mxCell>
        <mxCell id="d3Z-Pa4hWS6uCgzsi63L-52" value="1" style="text;html=1;align=center;verticalAlign=middle;resizable=0;points=[];autosize=1;strokeColor=none;fillColor=none;" vertex="1" parent="1">
          <mxGeometry x="1190" y="-277" width="30" height="30" as="geometry" />
        </mxCell>
        <mxCell id="d3Z-Pa4hWS6uCgzsi63L-53" value="*" style="text;html=1;align=center;verticalAlign=middle;resizable=0;points=[];autosize=1;strokeColor=none;fillColor=none;" vertex="1" parent="1">
          <mxGeometry x="1330" y="-557" width="30" height="30" as="geometry" />
        </mxCell>
        <mxCell id="d3Z-Pa4hWS6uCgzsi63L-54" value="*" style="text;html=1;align=center;verticalAlign=middle;resizable=0;points=[];autosize=1;strokeColor=none;fillColor=none;" vertex="1" parent="1">
          <mxGeometry x="620" y="-437" width="30" height="30" as="geometry" />
        </mxCell>
        <mxCell id="d3Z-Pa4hWS6uCgzsi63L-55" value="" style="group" vertex="1" connectable="0" parent="1">
          <mxGeometry x="590" y="-647" width="150" height="180" as="geometry" />
        </mxCell>
        <mxCell id="d3Z-Pa4hWS6uCgzsi63L-56" value="Bill" style="swimlane;fontStyle=0;childLayout=stackLayout;horizontal=1;startSize=30;horizontalStack=0;resizeParent=1;resizeParentMax=0;resizeLast=0;collapsible=1;marginBottom=0;whiteSpace=wrap;html=1;" vertex="1" parent="d3Z-Pa4hWS6uCgzsi63L-55">
          <mxGeometry width="140" height="210" as="geometry" />
        </mxCell>
        <mxCell id="d3Z-Pa4hWS6uCgzsi63L-57" value="title" style="text;strokeColor=none;fillColor=none;align=left;verticalAlign=middle;spacingLeft=4;spacingRight=4;overflow=hidden;points=[[0,0.5],[1,0.5]];portConstraint=eastwest;rotatable=0;whiteSpace=wrap;html=1;" vertex="1" parent="d3Z-Pa4hWS6uCgzsi63L-56">
          <mxGeometry y="30" width="140" height="30" as="geometry" />
        </mxCell>
        <mxCell id="d3Z-Pa4hWS6uCgzsi63L-58" value="description" style="text;strokeColor=none;fillColor=none;align=left;verticalAlign=middle;spacingLeft=4;spacingRight=4;overflow=hidden;points=[[0,0.5],[1,0.5]];portConstraint=eastwest;rotatable=0;whiteSpace=wrap;html=1;" vertex="1" parent="d3Z-Pa4hWS6uCgzsi63L-56">
          <mxGeometry y="60" width="140" height="30" as="geometry" />
        </mxCell>
        <mxCell id="d3Z-Pa4hWS6uCgzsi63L-59" value="billMainContentPdf" style="text;strokeColor=none;fillColor=none;align=left;verticalAlign=middle;spacingLeft=4;spacingRight=4;overflow=hidden;points=[[0,0.5],[1,0.5]];portConstraint=eastwest;rotatable=0;whiteSpace=wrap;html=1;" vertex="1" parent="d3Z-Pa4hWS6uCgzsi63L-56">
          <mxGeometry y="90" width="140" height="30" as="geometry" />
        </mxCell>
        <mxCell id="d3Z-Pa4hWS6uCgzsi63L-60" value="expirationDate" style="text;strokeColor=none;fillColor=none;align=left;verticalAlign=middle;spacingLeft=4;spacingRight=4;overflow=hidden;points=[[0,0.5],[1,0.5]];portConstraint=eastwest;rotatable=0;whiteSpace=wrap;html=1;" vertex="1" parent="d3Z-Pa4hWS6uCgzsi63L-56">
          <mxGeometry y="120" width="140" height="30" as="geometry" />
        </mxCell>
        <mxCell id="d3Z-Pa4hWS6uCgzsi63L-61" value="status" style="text;strokeColor=none;fillColor=none;align=left;verticalAlign=middle;spacingLeft=4;spacingRight=4;overflow=hidden;points=[[0,0.5],[1,0.5]];portConstraint=eastwest;rotatable=0;whiteSpace=wrap;html=1;" vertex="1" parent="d3Z-Pa4hWS6uCgzsi63L-56">
          <mxGeometry y="150" width="140" height="30" as="geometry" />
        </mxCell>
        <mxCell id="d3Z-Pa4hWS6uCgzsi63L-62" value="numSupporters" style="text;strokeColor=none;fillColor=none;align=left;verticalAlign=middle;spacingLeft=4;spacingRight=4;overflow=hidden;points=[[0,0.5],[1,0.5]];portConstraint=eastwest;rotatable=0;whiteSpace=wrap;html=1;" vertex="1" parent="d3Z-Pa4hWS6uCgzsi63L-56">
          <mxGeometry y="180" width="140" height="30" as="geometry" />
        </mxCell>
        <mxCell id="d3Z-Pa4hWS6uCgzsi63L-63" value="*" style="text;html=1;align=center;verticalAlign=middle;resizable=0;points=[];autosize=1;strokeColor=none;fillColor=none;" vertex="1" parent="1">
          <mxGeometry x="1167" y="-566" width="30" height="30" as="geometry" />
        </mxCell>
        <mxCell id="d3Z-Pa4hWS6uCgzsi63L-64" value="*" style="text;html=1;align=center;verticalAlign=middle;resizable=0;points=[];autosize=1;strokeColor=none;fillColor=none;" vertex="1" parent="1">
          <mxGeometry x="970" y="-407" width="30" height="30" as="geometry" />
        </mxCell>
        <mxCell id="d3Z-Pa4hWS6uCgzsi63L-65" value="" style="endArrow=none;html=1;rounded=0;" edge="1" parent="1">
          <mxGeometry width="50" height="50" relative="1" as="geometry">
            <mxPoint x="490" y="-597" as="sourcePoint" />
            <mxPoint x="590" y="-597" as="targetPoint" />
          </mxGeometry>
        </mxCell>
        <mxCell id="d3Z-Pa4hWS6uCgzsi63L-66" value="1" style="text;html=1;align=center;verticalAlign=middle;resizable=0;points=[];autosize=1;strokeColor=none;fillColor=none;" vertex="1" parent="1">
          <mxGeometry x="560" y="-597" width="30" height="30" as="geometry" />
        </mxCell>
        <mxCell id="d3Z-Pa4hWS6uCgzsi63L-67" value="1" style="text;html=1;align=center;verticalAlign=middle;resizable=0;points=[];autosize=1;strokeColor=none;fillColor=none;" vertex="1" parent="1">
          <mxGeometry x="490" y="-597" width="30" height="30" as="geometry" />
        </mxCell>
        <mxCell id="d3Z-Pa4hWS6uCgzsi63L-68" value="1" style="text;html=1;align=center;verticalAlign=middle;resizable=0;points=[];autosize=1;strokeColor=none;fillColor=none;" vertex="1" parent="1">
          <mxGeometry x="920" y="-632" width="30" height="30" as="geometry" />
        </mxCell>
        <mxCell id="d3Z-Pa4hWS6uCgzsi63L-69" value="*" style="text;html=1;align=center;verticalAlign=middle;resizable=0;points=[];autosize=1;strokeColor=none;fillColor=none;" vertex="1" parent="1">
          <mxGeometry x="730" y="-632" width="30" height="30" as="geometry" />
        </mxCell>
        <mxCell id="d3Z-Pa4hWS6uCgzsi63L-70" value="" style="endArrow=none;html=1;rounded=0;exitX=-0.006;exitY=-0.019;exitDx=0;exitDy=0;exitPerimeter=0;" edge="1" parent="1" source="d3Z-Pa4hWS6uCgzsi63L-53">
          <mxGeometry width="50" height="50" relative="1" as="geometry">
            <mxPoint x="1360" y="-547" as="sourcePoint" />
            <mxPoint x="620" y="-437" as="targetPoint" />
            <Array as="points">
              <mxPoint x="1370" y="-557" />
              <mxPoint x="1370" y="-437" />
              <mxPoint x="1370" y="-187" />
              <mxPoint x="620" y="-187" />
            </Array>
          </mxGeometry>
        </mxCell>
        <mxCell id="d3Z-Pa4hWS6uCgzsi63L-71" value="" style="endArrow=none;html=1;rounded=0;exitX=1;exitY=0.5;exitDx=0;exitDy=0;" edge="1" parent="1" source="d3Z-Pa4hWS6uCgzsi63L-41">
          <mxGeometry width="50" height="50" relative="1" as="geometry">
            <mxPoint x="1400" y="-637" as="sourcePoint" />
            <mxPoint x="420" y="-467" as="targetPoint" />
            <Array as="points">
              <mxPoint x="1400" y="-602" />
              <mxPoint x="1400" y="-157" />
              <mxPoint x="420" y="-157" />
            </Array>
          </mxGeometry>
        </mxCell>
        <mxCell id="d3Z-Pa4hWS6uCgzsi63L-72" value="*" style="text;html=1;align=center;verticalAlign=middle;resizable=0;points=[];autosize=1;strokeColor=none;fillColor=none;" vertex="1" parent="1">
          <mxGeometry x="420" y="-467" width="30" height="30" as="geometry" />
        </mxCell>
        <mxCell id="d3Z-Pa4hWS6uCgzsi63L-73" value="*" style="text;html=1;align=center;verticalAlign=middle;resizable=0;points=[];autosize=1;strokeColor=none;fillColor=none;" vertex="1" parent="1">
          <mxGeometry x="1330" y="-632" width="30" height="30" as="geometry" />
        </mxCell>
        <mxCell id="d3Z-Pa4hWS6uCgzsi63L-74" value="1" style="text;html=1;align=center;verticalAlign=middle;resizable=0;points=[];autosize=1;strokeColor=none;fillColor=none;" vertex="1" parent="1">
          <mxGeometry x="950" y="-587" width="30" height="30" as="geometry" />
        </mxCell>
        <mxCell id="d3Z-Pa4hWS6uCgzsi63L-75" value="*" style="text;html=1;align=center;verticalAlign=middle;resizable=0;points=[];autosize=1;strokeColor=none;fillColor=none;" vertex="1" parent="1">
          <mxGeometry x="964" y="-490" width="30" height="30" as="geometry" />
        </mxCell>
        <mxCell id="d3Z-Pa4hWS6uCgzsi63L-76" value="" style="endArrow=none;html=1;rounded=0;exitX=1;exitY=0.5;exitDx=0;exitDy=0;entryX=0;entryY=0.5;entryDx=0;entryDy=0;" edge="1" parent="1" source="d3Z-Pa4hWS6uCgzsi63L-57" target="d3Z-Pa4hWS6uCgzsi63L-48">
          <mxGeometry width="50" height="50" relative="1" as="geometry">
            <mxPoint x="730" y="-597" as="sourcePoint" />
            <mxPoint x="950" y="-597" as="targetPoint" />
          </mxGeometry>
        </mxCell>
        <mxCell id="d3Z-Pa4hWS6uCgzsi63L-77" value="Represented-by" style="text;html=1;align=center;verticalAlign=middle;resizable=0;points=[];autosize=1;strokeColor=none;fillColor=none;" vertex="1" parent="1">
          <mxGeometry x="1083" y="-433" width="110" height="30" as="geometry" />
        </mxCell>
        <mxCell id="d3Z-Pa4hWS6uCgzsi63L-78" value="Propose" style="text;html=1;align=center;verticalAlign=middle;resizable=0;points=[];autosize=1;strokeColor=none;fillColor=none;" vertex="1" parent="1">
          <mxGeometry x="930" y="-267" width="70" height="30" as="geometry" />
        </mxCell>
        <mxCell id="d3Z-Pa4hWS6uCgzsi63L-79" value="Support" style="text;html=1;align=center;verticalAlign=middle;resizable=0;points=[];autosize=1;strokeColor=none;fillColor=none;" vertex="1" parent="1">
          <mxGeometry x="965" y="-212" width="70" height="30" as="geometry" />
        </mxCell>
        <mxCell id="d3Z-Pa4hWS6uCgzsi63L-80" value="Associated-with" style="text;html=1;align=center;verticalAlign=middle;resizable=0;points=[];autosize=1;strokeColor=none;fillColor=none;" vertex="1" parent="1">
          <mxGeometry x="485" y="-627" width="110" height="30" as="geometry" />
        </mxCell>
        <mxCell id="d3Z-Pa4hWS6uCgzsi63L-81" value="Contains" style="text;html=1;align=center;verticalAlign=middle;resizable=0;points=[];autosize=1;strokeColor=none;fillColor=none;" vertex="1" parent="1">
          <mxGeometry x="809.5" y="-632" width="70" height="30" as="geometry" />
        </mxCell>
        <mxCell id="d3Z-Pa4hWS6uCgzsi63L-82" value="Contains" style="text;html=1;align=center;verticalAlign=middle;resizable=0;points=[];autosize=1;strokeColor=none;fillColor=none;" vertex="1" parent="1">
          <mxGeometry x="790" y="-547" width="70" height="30" as="geometry" />
        </mxCell>
        <mxCell id="d3Z-Pa4hWS6uCgzsi63L-83" value="Vote-in" style="text;html=1;align=center;verticalAlign=middle;resizable=0;points=[];autosize=1;strokeColor=none;fillColor=none;" vertex="1" parent="1">
          <mxGeometry x="870" y="-182" width="60" height="30" as="geometry" />
        </mxCell>
        <mxCell id="d3Z-Pa4hWS6uCgzsi63L-84" style="edgeStyle=orthogonalEdgeStyle;rounded=0;orthogonalLoop=1;jettySize=auto;html=1;entryX=0;entryY=0.5;entryDx=0;entryDy=0;endArrow=none;endFill=0;" edge="1" parent="1" source="d3Z-Pa4hWS6uCgzsi63L-87" target="d3Z-Pa4hWS6uCgzsi63L-50">
          <mxGeometry relative="1" as="geometry">
            <Array as="points">
              <mxPoint x="970" y="-307" />
            </Array>
          </mxGeometry>
        </mxCell>
        <mxCell id="d3Z-Pa4hWS6uCgzsi63L-85" value="" style="edgeStyle=orthogonalEdgeStyle;rounded=0;orthogonalLoop=1;jettySize=auto;html=1;endArrow=none;endFill=0;" edge="1" parent="1" source="d3Z-Pa4hWS6uCgzsi63L-87" target="d3Z-Pa4hWS6uCgzsi63L-49">
          <mxGeometry relative="1" as="geometry">
            <Array as="points">
              <mxPoint x="970" y="-517" />
              <mxPoint x="970" y="-517" />
            </Array>
          </mxGeometry>
        </mxCell>
        <mxCell id="d3Z-Pa4hWS6uCgzsi63L-86" style="edgeStyle=orthogonalEdgeStyle;rounded=0;orthogonalLoop=1;jettySize=auto;html=1;entryX=0;entryY=0.5;entryDx=0;entryDy=0;endArrow=none;endFill=0;" edge="1" parent="1" source="d3Z-Pa4hWS6uCgzsi63L-87" target="d3Z-Pa4hWS6uCgzsi63L-43">
          <mxGeometry relative="1" as="geometry">
            <Array as="points">
              <mxPoint x="1150" y="-437" />
              <mxPoint x="1150" y="-542" />
            </Array>
          </mxGeometry>
        </mxCell>
        <mxCell id="d3Z-Pa4hWS6uCgzsi63L-87" value="DelegateTheme" style="swimlane;fontStyle=0;childLayout=stackLayout;horizontal=1;startSize=30;horizontalStack=0;resizeParent=1;resizeParentMax=0;resizeLast=0;collapsible=1;marginBottom=0;whiteSpace=wrap;html=1;" vertex="1" parent="1">
          <mxGeometry x="920" y="-467" width="140" height="60" as="geometry" />
        </mxCell>
        <mxCell id="d3Z-Pa4hWS6uCgzsi63L-88" value="*" style="text;html=1;align=center;verticalAlign=middle;resizable=0;points=[];autosize=1;strokeColor=none;fillColor=none;" vertex="1" parent="1">
          <mxGeometry x="1053" y="-436" width="30" height="30" as="geometry" />
        </mxCell>
        <mxCell id="d3Z-Pa4hWS6uCgzsi63L-89" value="1" style="text;html=1;align=center;verticalAlign=middle;resizable=0;points=[];autosize=1;strokeColor=none;fillColor=none;" vertex="1" parent="1">
          <mxGeometry x="1160" y="-333" width="30" height="30" as="geometry" />
        </mxCell>
        <mxCell id="d3Z-Pa4hWS6uCgzsi63L-90" value="1" style="text;html=1;align=center;verticalAlign=middle;resizable=0;points=[];autosize=1;strokeColor=none;fillColor=none;" vertex="1" parent="1">
          <mxGeometry x="964" y="-561" width="30" height="30" as="geometry" />
        </mxCell>
      </root>
    </mxGraphModel>
  </diagram>
</mxfile>
